<svg id="Layer_1" data-name="Layer 1" xmlns="http://www.w3.org/2000/svg" viewBox="0 0 12 20"><defs><style>.cls-1{fill:#eceef2;}</style></defs><path class="cls-1" d="M11.12.41V3.47a.4.4,0,0,1-.12.29.46.46,0,0,1-.3.11H8.9c-1.23,0-1.46.47-1.46,1.4V7.19h3.14a.42.42,0,0,1,.3.12.38.38,0,0,1,.09.13.45.45,0,0,1,0,.16v3.29a.45.45,0,0,1,0,.16.64.64,0,0,1-.1.13.38.38,0,0,1-.13.09.45.45,0,0,1-.16,0H7.44v8.3a.41.41,0,0,1-.13.29A.42.42,0,0,1,7,20H3.52a.42.42,0,0,1-.29-.11.41.41,0,0,1-.13-.29V11.3H.42a.38.38,0,0,1-.29-.12A.41.41,0,0,1,0,10.89V7.6a.45.45,0,0,1,.12-.29.42.42,0,0,1,.3-.12H3.1V4.92A4.74,4.74,0,0,1,3.38,3,4.62,4.62,0,0,1,4.45,1.34,4.62,4.62,0,0,1,8,0h2.67A.4.4,0,0,1,11,.12.4.4,0,0,1,11.12.41Z"/></svg>