<svg width="36" height="36" viewBox="0 0 36 36" fill="none" xmlns="http://www.w3.org/2000/svg">
<path d="M35.8438 11.8724C35.8438 10.4265 34.6673 9.25 33.2214 9.25C32.5213 9.25 31.8622 9.52287 31.3673 10.0183L29.6538 11.7319L27.75 13.6357V8.0475C29.7081 7.76538 31.2188 6.0813 31.2188 4.04688C31.2188 1.81531 29.4034 0 27.1719 0H4.04688C1.81531 0 0 1.81531 0 4.04688V32.9531C0 33.2723 0.259 33.5312 0.578125 33.5312H3.46875V35.2656C3.46875 35.5848 3.72775 35.8438 4.04688 35.8438H27.1719C27.491 35.8438 27.75 35.5848 27.75 35.2656V21.0518L33.3619 15.44L33.9556 14.8463C33.6561 16.3378 32.926 17.7091 31.8264 18.8093L29.0762 21.5594L29.8937 22.3769L32.6438 19.6268C34.2845 17.986 35.202 15.8192 35.2558 13.5073C35.6298 13.0437 35.8438 12.4771 35.8438 11.8724ZM32.1848 10.8358C32.4617 10.5589 32.83 10.4062 33.2214 10.4062C34.0296 10.4062 34.6875 11.0642 34.6875 11.8724C34.6875 12.2638 34.5349 12.632 34.258 12.909L32.9531 14.2138L30.88 12.1406L32.1848 10.8358ZM30.0625 12.9581L30.6903 13.5859L23.4141 20.8622L22.7862 20.2344L30.0625 12.9581ZM16.313 28.2142L17.5022 25.8352L19.2585 27.5916L16.8795 28.7808L16.313 28.2142ZM18.1612 24.8594L21.9688 21.0518L24.0419 23.125L20.2344 26.9325L18.1612 24.8594ZM27.1719 1.15625C28.7658 1.15625 30.0625 2.45298 30.0625 4.04688C30.0625 5.64077 28.7658 6.9375 27.1719 6.9375H6.87391C7.62547 6.20213 8.09375 5.17884 8.09375 4.04688C8.09375 2.91491 7.62547 1.89162 6.87391 1.15625H27.1719ZM4.625 6.87911V5.20312C4.625 4.88458 4.88458 4.625 5.20312 4.625H6.87911C6.64844 5.75581 5.75581 6.64844 4.625 6.87911ZM1.15625 32.375V4.04688C1.15625 2.45298 2.45298 1.15625 4.04688 1.15625C5.44247 1.15625 6.61028 2.1512 6.87911 3.46875H5.20312C4.24691 3.46875 3.46875 4.24691 3.46875 5.20312V32.375H1.15625ZM26.5938 34.6875H4.625V8.09375H26.5938V14.7919L24.0419 17.3438H6.9375V18.5H22.8857L21.7294 19.6562H6.9375V20.8125H20.5732L16.935 24.4506C16.8899 24.4957 16.8604 24.5495 16.8333 24.6038L16.8269 24.6004L15.0925 28.0691C14.9815 28.2917 15.0249 28.5605 15.2012 28.7363L15.37 28.9062L14.0444 30.2319L14.8619 31.0494L16.1875 29.7237L16.3569 29.8931C16.4679 30.0041 16.6159 30.0625 16.7656 30.0625C16.8529 30.0625 16.942 30.0423 17.024 30.0018L20.4928 28.2674L20.4893 28.2611C20.5437 28.2339 20.5974 28.2044 20.6425 28.1593L25.2675 23.5343L26.5938 22.2081V34.6875ZM24.8594 22.3075L24.2315 21.6797L31.5078 14.4034L32.1357 15.0312L24.8594 22.3075Z" fill="#004DA3"/>
<path d="M6.9375 10.4062H24.2812V11.5625H6.9375V10.4062Z" fill="#004DA3"/>
<path d="M6.9375 12.7188H24.2812V13.875H6.9375V12.7188Z" fill="#004DA3"/>
<path d="M6.9375 15.0312H24.2812V16.1875H6.9375V15.0312Z" fill="#004DA3"/>
<path d="M6.9375 28.9062H13.2969V30.0625H6.9375V28.9062Z" fill="#004DA3"/>
<path d="M6.9375 31.2188H24.2812V32.375H6.9375V31.2188Z" fill="#004DA3"/>
</svg>
