<svg width="19" height="21" viewBox="0 0 19 21" fill="none" xmlns="http://www.w3.org/2000/svg">
<g clip-path="url(#clip0)">
<path d="M4.14835 0.15625C3.43538 0.15625 2.85205 0.71875 2.85205 1.40625V18.9062C2.85205 19.5938 3.43538 20.1562 4.14835 20.1562H17.1113C17.8243 20.1562 18.4076 19.5938 18.4076 18.9062V5.15625L13.2224 0.15625H4.14835Z" fill="#E2E5E7"/>
<path d="M14.5185 5.15625H18.4074L13.2222 0.15625V3.90625C13.2222 4.59375 13.8055 5.15625 14.5185 5.15625Z" fill="#B0B7BD"/>
<path d="M18.4077 8.90625L14.5188 5.15625H18.4077V8.90625Z" fill="#CAD1D8"/>
<path d="M15.8146 16.4062C15.8146 16.75 15.5229 17.0312 15.1664 17.0312H0.907181C0.5507 17.0312 0.259033 16.75 0.259033 16.4062V10.1562C0.259033 9.8125 0.5507 9.53125 0.907181 9.53125H15.1664C15.5229 9.53125 15.8146 9.8125 15.8146 10.1562V16.4062Z" fill="#F15642"/>
<path d="M3.08447 11.9981C3.08447 11.8331 3.21929 11.6531 3.43642 11.6531H4.63355C5.30762 11.6531 5.91429 12.0881 5.91429 12.9218C5.91429 13.7118 5.30762 14.1518 4.63355 14.1518H3.76827V14.8118C3.76827 15.0318 3.62308 15.1562 3.43642 15.1562C3.26531 15.1562 3.08447 15.0318 3.08447 14.8118V11.9981ZM3.76827 12.2825V13.5275H4.63355C4.98096 13.5275 5.25577 13.2318 5.25577 12.9218C5.25577 12.5725 4.98096 12.2825 4.63355 12.2825H3.76827Z" fill="white"/>
<path d="M6.92931 15.1561C6.7582 15.1561 6.57153 15.0661 6.57153 14.8467V12.008C6.57153 11.8286 6.7582 11.698 6.92931 11.698H8.11607C10.4844 11.698 10.4325 15.1561 8.16273 15.1561H6.92931ZM7.25598 12.308V14.5467H8.11607C9.51542 14.5467 9.57764 12.308 8.11607 12.308H7.25598Z" fill="white"/>
<path d="M11.2727 12.3481V13.1425H12.5943C12.7809 13.1425 12.9676 13.3225 12.9676 13.4969C12.9676 13.6619 12.7809 13.7969 12.5943 13.7969H11.2727V14.8463C11.2727 15.0213 11.1437 15.1556 10.9622 15.1556C10.7341 15.1556 10.5947 15.0213 10.5947 14.8463V12.0075C10.5947 11.8281 10.7347 11.6975 10.9622 11.6975H12.7816C13.0097 11.6975 13.1445 11.8281 13.1445 12.0075C13.1445 12.1675 13.0097 12.3475 12.7816 12.3475H11.2727V12.3481Z" fill="white"/>
<path d="M15.1669 17.0312H2.85205V17.6562H15.1669C15.5233 17.6562 15.815 17.375 15.815 17.0312V16.4062C15.815 16.75 15.5233 17.0312 15.1669 17.0312Z" fill="#CAD1D8"/>
</g>
<defs>
<clipPath id="clip0">
<rect width="18.6667" height="20" fill="white" transform="translate(0 0.15625)"/>
</clipPath>
</defs>
</svg>
