<svg width="153" height="37" viewBox="0 0 153 37" fill="none" xmlns="http://www.w3.org/2000/svg">
<g clip-path="url(#clip0)">
<path d="M51.52 25.555V10.3335H54.8907V16.2682H61.7455V10.3335H65.1187V25.555H61.7455V19.1841H54.8907V25.555H51.52Z" fill="#001C48"/>
<path d="M78.6528 25.5547L77.5128 21.8277H71.687L70.5494 25.5669H66.8037C69.796 16.2884 71.3728 11.3877 71.534 10.865C71.608 10.6199 71.6919 10.468 71.7807 10.419C71.9891 10.3517 72.2088 10.3259 72.4272 10.343H76.7898C77.005 10.3249 77.2217 10.3507 77.4265 10.419C77.557 10.5358 77.6439 10.693 77.6732 10.865L82.4257 25.5669L78.6528 25.5547ZM74.2507 13.0286L72.4544 18.6178H76.7405L74.9688 13.0286H74.2507Z" fill="#001C48"/>
<path d="M86.8575 20.9459C86.8575 21.5536 87.0031 22.0061 87.2942 22.3034C87.5879 22.6023 88.0616 22.7493 88.718 22.7493H91.4323C92.671 22.7493 93.2912 22.1482 93.2928 20.9459V10.3335H96.6659V21.5315C96.6882 22.073 96.5986 22.6132 96.4025 23.1189C96.2064 23.6246 95.9081 24.0851 95.5259 24.4719C94.7692 25.2266 93.7 25.604 92.3181 25.604H87.8272C86.4405 25.604 85.3712 25.2266 84.6194 24.4719C84.2372 24.0851 83.9389 23.6246 83.7428 23.1189C83.5468 22.6132 83.4571 22.073 83.4794 21.5315V10.3335H86.8575V20.9459Z" fill="#001C48"/>
<path d="M99.2817 25.555V10.3335H102.65V22.6415H110.206V25.555H99.2817Z" fill="#001C48"/>
<path d="M111.829 25.555V10.3335H123.086V13.1587H115.202V16.3785H122.013V19.2919H115.202V22.5754H123.042V25.555H111.829Z" fill="#001C48"/>
<path d="M128.998 20.4656V25.5549H125.625V10.3335H134.145C135.532 10.3335 136.601 10.7027 137.353 11.441C138.105 12.1794 138.485 13.1595 138.493 14.3814V16.4054C138.518 17.2013 138.308 17.9871 137.891 18.6671C137.48 19.2981 136.866 19.7729 136.149 20.0148L138.821 25.5599H135.261L132.754 20.4656H128.998ZM133.334 17.682C134.574 17.682 135.195 17.0588 135.197 15.8124V14.9671C135.197 14.3594 135.05 13.9061 134.757 13.6071C134.465 13.3082 133.99 13.1595 133.334 13.1612H128.998V17.682H133.334Z" fill="#001C48"/>
<path d="M152.057 10.5075L152.038 13.2519H145.225C144.628 13.2519 144.238 13.3107 144.077 13.4258C143.917 13.541 143.831 13.8473 143.831 14.3398V14.6878C143.819 14.787 143.831 14.8875 143.866 14.9814C143.9 15.0754 143.955 15.1602 144.028 15.2293C144.263 15.3718 144.524 15.4683 144.795 15.5135C147.756 16.0493 149.501 16.3679 150.029 16.4691C151.181 16.6872 151.969 17.045 152.383 17.5473C152.798 18.0496 153.007 18.819 153.007 19.8629V21.7545C153.007 23.1463 152.642 24.1468 151.912 24.7562C151.181 25.3655 149.904 25.6693 148.08 25.6677C147.117 25.6677 146 25.6424 144.729 25.5917C143.461 25.5427 142.422 25.4888 141.62 25.43L140.438 25.3638L140.46 22.6244H147.665C148.423 22.6244 148.938 22.5313 149.207 22.3426C149.476 22.1539 149.612 21.7766 149.612 21.2105V20.3137C149.625 20.2053 149.616 20.0955 149.585 19.9906C149.555 19.8857 149.503 19.7879 149.435 19.7029C149.366 19.6178 149.28 19.5472 149.184 19.4952C149.087 19.4432 148.981 19.4107 148.872 19.3997C147.668 19.14 146.116 18.8574 144.218 18.5519C143.725 18.4662 143.389 18.4 143.179 18.3583C142.969 18.3167 142.686 18.2481 142.345 18.1623C142.088 18.1082 141.839 18.0201 141.605 17.9001C141.424 17.7899 141.248 17.6704 141.079 17.5424C140.89 17.4117 140.741 17.2309 140.65 17.0205C140.559 16.7914 140.489 16.5543 140.443 16.3123C140.38 15.9977 140.35 15.6774 140.354 15.3567V14.0286C140.354 12.6515 140.726 11.6714 141.472 11.0882C142.217 10.505 143.506 10.2167 145.338 10.2233C146.301 10.2233 147.344 10.2486 148.47 10.2992C149.595 10.3507 150.476 10.3972 151.12 10.4413L152.057 10.5075Z" fill="#001C48"/>
<path d="M4.93509 9.06641H1.48053C0.662854 9.06641 0 9.72464 0 10.5366V32.5896C0 33.4015 0.662854 34.0598 1.48053 34.0598H4.93509C5.75276 34.0598 6.41561 33.4015 6.41561 32.5896V10.5366C6.41561 9.72464 5.75276 9.06641 4.93509 9.06641Z" fill="#001C48"/>
<path d="M4.93509 0H1.48053C0.662854 0 0 0.65823 0 1.4702V4.90066C0 5.71263 0.662854 6.37086 1.48053 6.37086H4.93509C5.75276 6.37086 6.41561 5.71263 6.41561 4.90066V1.4702C6.41561 0.65823 5.75276 0 4.93509 0Z" fill="#B11720"/>
<path d="M8.88306 11.5166L15.9156 18.1325V24.7484C15.9156 25.6582 16.2795 26.5308 16.9274 27.1741C17.5752 27.8174 18.4539 28.1789 19.3701 28.1789H25.7857L32.6504 34.9026C32.8247 35.0732 32.9439 35.2915 32.9929 35.5295C33.0419 35.7676 33.0185 36.0148 32.9256 36.2397C32.8328 36.4645 32.6747 36.6569 32.4715 36.7923C32.2682 36.9277 32.029 37 31.7843 37H27.8831L24.9221 34.0596H13.3246C12.1467 34.0596 11.0169 33.595 10.184 32.7678C9.35101 31.9407 8.88306 30.8188 8.88306 29.649V11.5166Z" fill="#001C48"/>
<path d="M8.88306 9.31134V4.65571C8.88306 3.48595 9.35101 2.3641 10.184 1.53695C11.0169 0.709804 12.1467 0.245117 13.3246 0.245117H40.7144C41.8923 0.245117 43.0221 0.709804 43.855 1.53695C44.688 2.3641 45.1559 3.48595 45.1559 4.65571V29.6491C45.1559 30.8189 44.688 31.9407 43.855 32.7679C43.0221 33.595 41.8923 34.0597 40.7144 34.0597H33.6819L25.9091 26.3509C25.7357 26.1792 25.6176 25.96 25.5701 25.7213C25.5225 25.4827 25.5476 25.2354 25.6421 25.011C25.7365 24.7865 25.8962 24.5951 26.1006 24.4611C26.3051 24.327 26.545 24.2565 26.79 24.2584H34.7923C35.7085 24.2584 36.5871 23.8969 37.235 23.2536C37.8829 22.6103 38.2468 21.7377 38.2468 20.8279V9.55638C38.2468 8.64656 37.8829 7.77401 37.235 7.13067C36.5871 6.48734 35.7085 6.12591 34.7923 6.12591H19.4145C18.9573 6.12588 18.5047 6.21597 18.0828 6.39097C17.6609 6.56596 17.2782 6.82238 16.9568 7.14535C16.6355 7.46833 16.3819 7.85143 16.2108 8.27245C16.0397 8.69348 15.9544 9.14404 15.96 9.59803L16.0093 13.6362C16.0126 13.8283 15.9589 14.0171 15.855 14.1792C15.7511 14.3413 15.6015 14.4694 15.4248 14.5478C15.2481 14.6261 15.0522 14.6511 14.8613 14.6197C14.6704 14.5884 14.493 14.502 14.3511 14.3713L8.88306 9.31134Z" fill="#B11720"/>
</g>
<defs>
<clipPath id="clip0">
<rect width="153" height="37" fill="white"/>
</clipPath>
</defs>
</svg>
