<svg id="Layer_1" data-name="Layer 1" xmlns="http://www.w3.org/2000/svg" width="11.124" height="20.01476" viewBox="0 0 11.124 20.01476">
  <defs>
    <style>
      .cls-1 {
        fill: #fff;
        fill-rule: evenodd;
        opacity: 0.6;
      }
    </style>
  </defs>
  <path class="cls-1" d="M10.706,0H8.037A4.619,4.619,0,0,0,3.1,4.921v2.27H.416A.413.413,0,0,0,0,7.6v3.289a.414.414,0,0,0,.419.407H3.1v8.3a.41406.41406,0,0,0,.42.407h3.5a.41511.41511,0,0,0,.42-.407v-8.3h3.137A.413.413,0,0,0,11,10.887V7.6a.40712.40712,0,0,0-.123-.288.426.426,0,0,0-.3-.119H7.439V5.267c0-.925.227-1.394,1.465-1.394h1.8a.41394.41394,0,0,0,.42-.407V.411A.415.415,0,0,0,10.706,0Z" transform="translate(0 0.01172)"/>
</svg>
