<svg id="Layer_1" data-name="Layer 1" xmlns="http://www.w3.org/2000/svg" width="19.49" height="16.41" viewBox="0 0 19.49 16.41"><defs><style>.cls-1{opacity:0.6;}.cls-2{fill:#fff;fill-rule:evenodd;}</style></defs><g id="_00-Home" data-name="00-Home" class="cls-1"><g id="_00-01-01-Home" data-name="00-01-01-Home"><g id="Footer"><g id="Social_Twitter" data-name="Social/Twitter"><path id="Fill" class="cls-2" d="M19.51,2a7.66,7.66,0,0,1-2.29.66A4.2,4.2,0,0,0,19,.35a7.87,7.87,0,0,1-2.55,1A3.88,3.88,0,0,0,13.52.05a4.08,4.08,0,0,0-4,4.14,4.25,4.25,0,0,0,.1.95A11.26,11.26,0,0,1,1.38.81,4.26,4.26,0,0,0,.84,2.89,4.19,4.19,0,0,0,2.62,6.34,3.88,3.88,0,0,1,.81,5.82v0A4.12,4.12,0,0,0,4,9.94,4.11,4.11,0,0,1,3,10.08,3.74,3.74,0,0,1,2.21,10a4,4,0,0,0,3.73,2.87,7.78,7.78,0,0,1-5,1.78A7.46,7.46,0,0,1,0,14.6a11,11,0,0,0,6.12,1.86c7.36,0,11.38-6.31,11.38-11.78,0-.19,0-.37,0-.54a8.32,8.32,0,0,0,2-2.15" transform="translate(-0.03 -0.05)"/></g></g></g></g></svg>