<svg id="Layer_1" data-name="Layer 1" xmlns="http://www.w3.org/2000/svg" width="19.72" height="19.38" viewBox="0 0 19.72 19.38">
  <defs>
    <style>
      .cls-1 {
        fill: #fff;
        fill-rule: evenodd;
        opacity: 0.6;
      }
    </style>
  </defs>
  <path class="cls-1" d="M18,13.92a4,4,0,0,1-.31,1.47,3.91,3.91,0,0,1-2.11,2.07,3.92,3.92,0,0,1-1.47.28h-8a3.93,3.93,0,0,1-1.48-.28A3.91,3.91,0,0,1,2.5,15.39a4,4,0,0,1-.31-1.47V6.08A4,4,0,0,1,2.5,4.61,3.91,3.91,0,0,1,4.61,2.54a3.93,3.93,0,0,1,1.48-.28h8a3.92,3.92,0,0,1,1.47.28,3.91,3.91,0,0,1,2.11,2.07A4,4,0,0,1,18,6.08v7.84ZM14.06.32h-8A5.84,5.84,0,0,0,.21,6.09v7.83a5.84,5.84,0,0,0,5.88,5.77h8a5.82,5.82,0,0,0,5.87-5.77V6.08A5.82,5.82,0,0,0,14.06.31Zm-4,12.75A3.06,3.06,0,1,1,13.19,10a3.09,3.09,0,0,1-3.12,3.06Zm0-8.08a5.05,5.05,0,1,0,3.59,1.45A5.08,5.08,0,0,0,10.07,5Zm5.11-1.16a1.18,1.18,0,0,1,.66.21,1.22,1.22,0,0,1,.49,1.24,1.22,1.22,0,0,1-.33.61,1.21,1.21,0,0,1-1.31.25,1.21,1.21,0,0,1-.53-.45A1.17,1.17,0,0,1,14,5a1,1,0,0,1,.1-.46,1.16,1.16,0,0,1,.26-.39,1.2,1.2,0,0,1,.4-.26A1.18,1.18,0,0,1,15.18,3.83Z" transform="translate(-0.21 -0.31)"/>
</svg>
