<svg id="Layer_1" data-name="Layer 1" xmlns="http://www.w3.org/2000/svg" width="20.67" height="19.39" viewBox="0 0 20.67 19.39">
  <defs>
    <style>
      .cls-1 {
        fill: #fff;
        fill-rule: evenodd;
        opacity: 0.6;
      }
    </style>
  </defs>
  <path class="cls-1" d="M21.58,12.19v7.5H17.15v-7c0-1.75-.64-2.95-2.24-2.95a2.4,2.4,0,0,0-2.28,1.59,2.92,2.92,0,0,0-.14,1.06v7.3H8.05s.06-11.85,0-13.08h4.44V8.47l0,0h0v0a4.35,4.35,0,0,1,4-2.16c2.92,0,5.1,1.87,5.1,5.88ZM3.42.31a2.3,2.3,0,0,0-.94.11,2.27,2.27,0,0,0-.81.47,2.21,2.21,0,0,0-.56.76,2.24,2.24,0,0,0-.2.92,2.39,2.39,0,0,0,.19.91,2.36,2.36,0,0,0,.54.75,2.11,2.11,0,0,0,.8.48,2.38,2.38,0,0,0,.92.12h0a2.27,2.27,0,0,0,.93-.11,2.4,2.4,0,0,0,.82-.47,2.32,2.32,0,0,0,.55-.76,2.42,2.42,0,0,0,.21-.92,2.36,2.36,0,0,0-.2-.91A2.32,2.32,0,0,0,5.15.9a2.51,2.51,0,0,0-.8-.48A2.27,2.27,0,0,0,3.42.31ZM1.17,19.69H5.6V6.61H1.17Z" transform="translate(-0.91 -0.3)"/>
</svg>
