<svg id="Layer_1" data-name="Layer 1" xmlns="http://www.w3.org/2000/svg" width="191.02" height="46.19" viewBox="0 0 191.02 46.19">
  <defs>
    <style>
      .cls-1 {
        fill: #fff;
        opacity: 0.6;
      }
    </style>
  </defs>
  <path class="cls-1" d="M191,23.55v2.36a4.62,4.62,0,0,1-1.37,3.74c-.91.77-2.5,1.14-4.78,1.14-1.2,0-2.6,0-4.18-.09s-2.88-.13-3.88-.2l-1.48-.09V27h9a3.68,3.68,0,0,0,1.93-.35,1.65,1.65,0,0,0,.5-1.41V24.11a1,1,0,0,0-.22-.76.86.86,0,0,0-.31-.26.89.89,0,0,0-.39-.12c-1.51-.33-3.44-.68-5.81-1.06l-1.3-.24c-.26-.05-.61-.14-1-.25a3.35,3.35,0,0,1-.92-.32,7.66,7.66,0,0,1-.66-.45,1.55,1.55,0,0,1-.54-.65,4.72,4.72,0,0,1-.25-.89,5.28,5.28,0,0,1-.11-1.19V16.26a4.41,4.41,0,0,1,1.39-3.67q1.4-1.1,4.83-1.08c1.2,0,2.5,0,3.91.1s2.5.12,3.3.18l1.17.08v3.42h-8.5a3,3,0,0,0-1.44.22c-.2.14-.31.53-.31,1.14v.44a.9.9,0,0,0,0,.36.72.72,0,0,0,.2.31,3,3,0,0,0,1,.36l6.53,1.19a5,5,0,0,1,2.94,1.35A4.39,4.39,0,0,1,191,23.55Z" transform="translate(0 0)"/>
  <path class="cls-1" d="M170,23.74l3.33,6.92h-4.44l-3.13-6.36H161v6.35h-4.21v-19h10.63a5.48,5.48,0,0,1,4,1.38,5,5,0,0,1,1.42,3.67v2.53a5.11,5.11,0,0,1-.75,2.82A4.19,4.19,0,0,1,170,23.74Zm-1.19-5.25V17.43a2.37,2.37,0,0,0-.55-1.69,2.4,2.4,0,0,0-1.78-.56H161v5.64h5.41a2.07,2.07,0,0,0,2.36-1.71,2.15,2.15,0,0,0,0-.62Z" transform="translate(0 0)"/>
  <polygon class="cls-1" points="153.65 11.65 153.65 15.18 143.81 15.18 143.81 19.2 152.31 19.2 152.31 22.83 143.81 22.83 143.81 26.93 153.59 26.93 153.59 30.65 139.6 30.65 139.6 11.65 153.65 11.65"/>
  <polygon class="cls-1" points="137.57 27.01 137.57 30.65 123.93 30.65 123.93 11.65 128.14 11.65 128.14 27.01 137.57 27.01"/>
  <path class="cls-1" d="M120.67,25.63a5,5,0,0,1-1.42,3.67,5.45,5.45,0,0,1-4,1.41h-5.6a5.45,5.45,0,0,1-4-1.41,5,5,0,0,1-1.42-3.67v-14h4.22V24.9a2.31,2.31,0,0,0,.54,1.69,2.4,2.4,0,0,0,1.78.56h3.39a2,2,0,0,0,2.31-1.63,1.84,1.84,0,0,0,0-.62V11.65h4.21Z" transform="translate(0 0)"/>
  <path class="cls-1" d="M97,12.31l5.93,18.36H98.22L96.76,26H89.49l-1.42,4.67H83.39Q89,13.28,89.3,12.31a1,1,0,0,1,.3-.55,2,2,0,0,1,.81-.1h5.45a1.91,1.91,0,0,1,.79.1A1,1,0,0,1,97,12.31ZM95.8,22l-2.22-7h-.89l-2.24,7Z" transform="translate(0 0)"/>
  <polygon class="cls-1" points="81.29 11.65 81.29 30.65 77.08 30.65 77.08 22.7 68.52 22.7 68.52 30.65 64.31 30.65 64.31 11.65 68.52 11.65 68.52 19.06 77.08 19.06 77.08 11.65 81.29 11.65"/>
  <path class="cls-1" d="M56.37,5.81V37a5.48,5.48,0,0,1-1.63,3.89,5.54,5.54,0,0,1-3.92,1.62H42l-.12-.12L32.3,32.88a1.53,1.53,0,0,1-.42-.78,1.51,1.51,0,0,1,.09-.89,1.6,1.6,0,0,1,.57-.69,1.65,1.65,0,0,1,.86-.25h10a4.33,4.33,0,0,0,3-1.25,4.26,4.26,0,0,0,1.26-3V11.93a4.26,4.26,0,0,0-1.26-3,4.33,4.33,0,0,0-3-1.25H24.23A4.3,4.3,0,0,0,22.57,8a4.42,4.42,0,0,0-1.4.94,4.17,4.17,0,0,0-.93,1.41A4,4,0,0,0,19.92,12L20,17a1.17,1.17,0,0,1-.19.68,1.27,1.27,0,0,1-.54.46,1.2,1.2,0,0,1-.7.09,1.28,1.28,0,0,1-.64-.31l-5.44-5-1.38-1.28V5.81a5.47,5.47,0,0,1,1.62-3.89A5.54,5.54,0,0,1,16.63.31H50.82a5.57,5.57,0,0,1,3.92,1.61A5.48,5.48,0,0,1,56.37,5.81Z" transform="translate(0 0)"/>
  <path class="cls-1" d="M41.18,44.35a1.43,1.43,0,0,1-.08.89,1.47,1.47,0,0,1-.57.69,1.52,1.52,0,0,1-.85.26H34.81l-3.7-3.67H16.63A5.53,5.53,0,0,1,11.09,37V14.38l8.78,8.25v8.26a4.26,4.26,0,0,0,1.26,3,4.36,4.36,0,0,0,3.05,1.26h8l8.57,8.39A1.56,1.56,0,0,1,41.18,44.35Z" transform="translate(0 0)"/>
  <path class="cls-1" d="M8,13.15V40.68a1.84,1.84,0,0,1-1.84,1.84H1.85A1.84,1.84,0,0,1,0,40.69H0V13.15a1.84,1.84,0,0,1,1.85-1.83H6.16A1.85,1.85,0,0,1,8,13.15Z" transform="translate(0 0)"/>
  <path class="cls-1" d="M8,1.84V6.12A1.84,1.84,0,0,1,6.2,8H1.85A1.84,1.84,0,0,1,0,6.17V1.84A1.84,1.84,0,0,1,1.84,0H6.16A1.84,1.84,0,0,1,8,1.84Z" transform="translate(0 0)"/>
</svg>
